<svg width="7331" height="3131" viewBox="0 0 7331 3131" fill="none" xmlns="http://www.w3.org/2000/svg">
<rect width="7331" height="3131" fill="#0F0E0F"/>
<path fill-rule="evenodd" clip-rule="evenodd" d="M1271.5 524.085C631.498 524.085 112.512 1003.15 112.512 1594.17C112.512 2066.95 444.599 2468.07 905.106 2609.56C963.024 2619.47 984.291 2586.35 984.291 2558.08C984.291 2532.59 983.213 2448.27 982.718 2358.86C660.288 2423.59 592.251 2232.6 592.251 2232.6C539.528 2108.93 463.564 2076.03 463.564 2076.03C358.406 2009.61 471.49 2010.98 471.49 2010.98C587.871 2018.52 649.152 2121.26 649.152 2121.26C752.525 2284.84 920.284 2237.55 986.423 2210.2C996.847 2141.06 1026.86 2093.83 1060.01 2067.11C802.576 2040.07 531.966 1948.3 531.966 1538.27C531.966 1421.46 577.241 1326 651.382 1251.06C639.348 1224.08 599.677 1115.25 662.628 967.857C662.628 967.857 759.956 939.11 981.413 1077.56C1073.87 1053.85 1173.01 1041.96 1271.51 1041.54C1370 1041.94 1469.23 1053.85 1561.85 1077.56C1783.06 939.11 1880.26 967.857 1880.26 967.857C1943.34 1115.25 1903.67 1224.08 1891.64 1251.06C1965.95 1326 2010.9 1421.46 2010.9 1538.27C2010.9 1949.29 1739.76 2039.77 1481.68 2066.26C1523.26 2099.47 1560.3 2164.59 1560.3 2264.43C1560.3 2407.61 1558.98 2522.84 1558.98 2558.08C1558.98 2586.58 1579.82 2619.95 1638.57 2609.44C2098.84 2467.78 2430.5 2066.81 2430.5 1594.18C2430.5 1003.14 1911.59 524.085 1271.5 524.085Z" fill="white"/>
<path d="M551.492 2060.49C548.935 2065.82 539.877 2067.42 531.63 2063.75C523.197 2060.26 518.502 2053.01 521.222 2047.68C523.725 2042.22 532.777 2040.69 541.188 2044.35C549.594 2047.84 554.387 2055.16 551.492 2060.49ZM598.443 2108.84C592.915 2113.57 582.089 2111.37 574.777 2103.89C567.177 2096.43 565.773 2086.44 571.382 2081.66C577.084 2076.93 587.562 2079.14 595.141 2086.6C602.741 2094.15 604.221 2104.05 598.443 2108.84ZM644.137 2170.46C637.037 2175.03 625.405 2170.76 618.224 2161.25C611.124 2151.71 611.124 2140.3 618.387 2135.73C625.569 2131.16 637.026 2135.28 644.3 2144.71C651.383 2154.39 651.383 2165.8 644.137 2170.46ZM706.734 2230.01C700.385 2236.47 686.855 2234.74 676.948 2225.91C666.818 2217.28 664 2205.04 670.349 2198.57C676.795 2192.09 690.402 2193.91 700.379 2202.66C710.444 2211.28 713.491 2223.61 706.734 2230.01ZM793.105 2264.58C790.276 2272.97 777.274 2276.75 764.141 2273.19C751.03 2269.52 742.455 2259.73 745.099 2251.26C747.831 2242.8 760.92 2238.85 774.14 2242.66C787.23 2246.31 795.831 2256.05 793.105 2264.58ZM887.959 2270.99C888.285 2279.81 877.154 2287.13 863.374 2287.29C849.517 2287.59 838.293 2280.43 838.136 2271.74C838.136 2262.83 849.038 2255.61 862.873 2255.37C876.654 2255.12 887.959 2262.23 887.959 2270.99ZM976.218 2257.12C977.867 2265.71 968.291 2274.56 954.609 2276.91C941.155 2279.2 928.696 2273.86 926.988 2265.35C925.318 2256.52 935.051 2247.68 948.505 2245.39C962.209 2243.2 974.472 2248.37 976.218 2257.12Z" fill="white"/>
<path d="M3459.54 1604.17H3108.96C3104.61 1604.17 3100.45 1605.67 3097.38 1608.33C3094.3 1610.99 3092.58 1614.6 3092.58 1618.36V1766.78C3092.58 1774.62 3099.92 1780.99 3108.96 1780.99H3245.72V1965.4C3245.72 1965.4 3215.01 1974.46 3130.11 1974.46C3029.95 1974.46 2890.03 1942.78 2890.03 1676.34C2890.03 1409.84 3035.74 1374.78 3172.52 1374.78C3290.92 1374.78 3341.94 1392.83 3374.39 1401.53C3384.59 1404.22 3394.02 1395.44 3394.02 1387.61L3433.13 1244.19C3433.13 1240.52 3431.7 1236.11 3426.88 1233.11C3413.7 1224.97 3333.28 1186 3130.11 1186C2896.08 1186 2656 1272.23 2656 1686.73C2656 2101.23 2930.86 2163 3162.49 2163C3354.27 2163 3470.61 2092.03 3470.61 2092.03C3475.41 2089.74 3475.93 2083.94 3475.93 2081.28V1618.36C3475.93 1616.5 3475.51 1614.65 3474.68 1612.93C3473.86 1611.21 3472.65 1609.64 3471.13 1608.33C3469.61 1607.01 3467.8 1605.96 3465.81 1605.25C3463.83 1604.53 3461.7 1604.17 3459.54 1604.17ZM5266.3 1235.66C5266.32 1233.8 5265.91 1231.95 5265.1 1230.23C5264.29 1228.5 5263.1 1226.93 5261.59 1225.6C5260.07 1224.27 5258.27 1223.22 5256.29 1222.5C5254.31 1221.78 5252.18 1221.4 5250.03 1221.39H5052.63C5050.47 1221.4 5048.34 1221.78 5046.35 1222.5C5044.36 1223.22 5042.56 1224.27 5041.04 1225.6C5039.52 1226.92 5038.32 1228.49 5037.51 1230.22C5036.69 1231.95 5036.28 1233.8 5036.28 1235.66L5036.33 1566.01H4728.64V1235.66C4728.64 1227.77 4721.38 1221.39 4712.35 1221.39H4514.95C4510.61 1221.42 4506.45 1222.93 4503.4 1225.61C4500.34 1228.29 4498.64 1231.9 4498.66 1235.66V2130.13C4498.66 2138.02 4505.98 2144.44 4514.95 2144.44H4712.35C4721.38 2144.44 4728.64 2138.02 4728.64 2130.13V1747.53H5036.33L5035.8 2130.13C5035.8 2138.02 5043.1 2144.44 5052.16 2144.44H5250.01C5259.04 2144.44 5266.27 2138.02 5266.29 2130.13L5266.3 1235.66ZM3832.04 1353.04C3832.04 1291.5 3775.05 1241.76 3704.75 1241.76C3634.51 1241.76 3577.48 1291.5 3577.48 1353.04C3577.48 1414.53 3634.51 1464.4 3704.75 1464.4C3775.05 1464.4 3832.04 1414.53 3832.04 1353.04ZM3817.93 1941.45V1528.56C3817.93 1520.73 3810.63 1514.32 3801.59 1514.32H3604.83C3595.79 1514.32 3587.71 1522.37 3587.71 1530.21V2121.76C3587.71 2139.14 3600.22 2144.31 3616.42 2144.31H3793.71C3813.16 2144.31 3817.93 2136.04 3817.93 2121.48V1941.45ZM6016.5 1515.66H5820.62C5811.63 1515.66 5804.32 1522.07 5804.32 1529.96V1968.54C5804.32 1968.54 5754.54 2000.08 5683.92 2000.08C5613.29 2000.08 5594.54 1972.32 5594.54 1912.44V1529.96C5594.54 1522.06 5587.25 1515.65 5578.25 1515.65H5379.45C5370.48 1515.65 5363.12 1522.06 5363.12 1529.96V1941.38C5363.12 2119.26 5477.61 2162.79 5635.1 2162.79C5764.33 2162.79 5868.5 2100.97 5868.5 2100.97C5868.5 2100.97 5873.46 2133.55 5875.71 2137.41C5877.95 2141.26 5883.79 2145.16 5890.12 2145.16L6016.59 2144.67C6025.56 2144.67 6032.91 2138.25 6032.91 2130.39L6032.84 1529.96C6032.84 1522.06 6025.53 1515.66 6016.5 1515.66ZM6474.63 1999.53C6406.68 1997.74 6360.59 1971.05 6360.59 1971.05V1687.78C6360.59 1687.78 6406.05 1663.65 6461.84 1659.34C6532.38 1653.87 6600.35 1672.31 6600.35 1818.04C6600.35 1971.68 6569.69 2002.02 6474.63 1999.53ZM6551.88 1495.56C6440.63 1495.56 6364.96 1538.56 6364.96 1538.56V1235.66C6364.96 1227.77 6357.66 1221.39 6348.67 1221.39H6150.71C6148.56 1221.4 6146.43 1221.78 6144.44 1222.5C6142.46 1223.23 6140.66 1224.28 6139.14 1225.6C6137.63 1226.93 6136.43 1228.5 6135.62 1230.23C6134.8 1231.95 6134.39 1233.8 6134.4 1235.66V2130.13C6134.4 2138.03 6141.71 2144.45 6150.73 2144.45H6288.08C6294.27 2144.45 6298.95 2141.68 6302.41 2136.84C6305.83 2132.04 6310.75 2095.61 6310.75 2095.61C6310.75 2095.61 6391.69 2162.03 6544.93 2162.03C6724.84 2162.03 6828 2083.01 6828 1807.3C6828 1531.6 6663.22 1495.56 6551.88 1495.56ZM4385.26 1514.23H4237.19L4236.96 1344.83C4236.96 1338.42 4233.16 1335.22 4224.58 1335.22H4022.81C4014.97 1335.22 4010.75 1338.21 4010.75 1344.74V1519.79C4010.75 1519.79 3909.63 1540.92 3902.8 1542.64C3899.39 1543.49 3896.39 1545.29 3894.26 1547.74C3892.12 1550.2 3890.97 1553.2 3890.97 1556.27V1666.27C3890.97 1674.17 3898.27 1680.57 3907.29 1680.57H4010.76V1945.2C4010.76 2141.75 4169.97 2161.06 4277.4 2161.06C4326.5 2161.06 4385.23 2147.41 4394.92 2144.31C4400.79 2142.44 4404.2 2137.19 4404.2 2131.49L4404.37 2010.48C4404.37 2002.58 4396.66 1996.19 4388 1996.19C4379.36 1996.19 4357.29 1999.23 4334.56 1999.23C4261.83 1999.23 4237.18 1969.95 4237.18 1932.06V1680.56H4385.26C4387.42 1680.55 4389.55 1680.17 4391.54 1679.45C4393.53 1678.73 4395.34 1677.67 4396.85 1676.34C4398.37 1675.02 4399.57 1673.44 4400.39 1671.71C4401.2 1669.99 4401.62 1668.13 4401.6 1666.27V1528.49C4401.6 1520.59 4394.29 1514.23 4385.26 1514.23Z" fill="white"/>
</svg>
