<svg width="7331" height="3131" viewBox="0 0 7331 3131" fill="none" xmlns="http://www.w3.org/2000/svg">
<path d="M0 0H7331V3131H0V0Z" fill="#EE3424"/>
<path d="M1264.94 774.237V801.046C1264.94 801.046 1264.83 848.344 1264.83 889.456C1220.15 843.904 1152.21 774.237 1152.21 774.237H842L842.147 2193.92L1020.85 2324.01L1207.17 2302.47L1208.49 2176.62C1269.68 2223.02 1353.47 2286.4 1353.47 2286.4L1658.62 2257.74V920.366L1493.03 774.542L1264.94 774.237ZM3143.86 774.068H2613.58V963.19C2613.58 963.19 2753.74 1064.73 2773.03 1078.66V2053.37L2948.53 2183.21L3160.77 2178.23V1078.56C3199.13 1078.26 3317.64 1077.48 3317.64 1077.48V939.821L3156.78 774.068H3143.86ZM5287.22 774.237H5078.34V2079.18L5256.48 2231.46L5467.21 2247.56V923.942L5298.99 774.237H5287.22ZM6324.9 1572.01L6451.2 934.195L6281.56 774.322H6060.51C6060.51 774.322 6049.16 840.057 6041.83 881.356C5998.01 837.566 5934.85 774.322 5934.85 774.322H5706.98C5706.98 774.322 5836.9 1401.2 5838.85 1410.3C5837.23 1419.44 5714.37 2124.02 5714.37 2124.02L5955.78 2293.32L6099.93 2309.13V2190.31L6298.53 2332.83L6489 2357C6489.06 2357.03 6326.95 1581.73 6324.9 1572.01ZM4714.48 1854.61V919.248L4548.5 774.237H4325.49V2047.41L4502.42 2190.2L4906.11 2208.7L4897.18 2043.76C4897.18 2043.73 4755.14 1896.67 4714.48 1854.61ZM2293.14 1056.6H2466.46V919.993L2301.12 774H2289.49L1903.65 774.237V2098.53L2078.03 2225.14L2466.46 2202.7V2056.18C2466.46 2056.18 2306.86 1893.46 2293.14 1879.43V1642.78H2468.83V1495.12C2468.83 1495.12 2308.52 1347.33 2293.14 1333.1V1056.6ZM3911.78 1056.46H4085.09V919.892L3919.76 774H3908.12L3522.25 774.237V2038.51L3699.15 2173.91L3911.78 2175.27V1642.71L4087.46 1642.78V1495.12C4087.46 1495.12 3927.15 1347.33 3911.78 1333.1V1056.46Z" fill="black"/>
<path d="M5125.69 2055.32C5125.69 2055.32 5179.59 2057.78 5272.03 2064V812.068L5125.69 812.339V2055.32ZM2659.88 937.141H2819.41V2026.18C2819.41 2026.18 2853.6 2023.69 2965.43 2021.36L2966.22 937.395H3127.68V812.475L2659.88 812.339V937.141ZM1315.14 1888.26L1304.8 1889.38L1126.45 812.458L889 812.22L889.11 2164C889.11 2164 936.24 2157.74 1036.57 2147.25L1026.23 1119.77L1036.52 1118.87L1206.18 2131.16C1206.18 2131.16 1264.16 2124.87 1461.35 2106.89V812.322H1309.87L1315.14 1888.26ZM6264 812.068H6098.94L6016.03 1295.07H6006.28L5920.17 812.068H5758.16L5884.7 1409.49L5762.37 2107.77L5919.84 2121.59L6000.89 1545.87L6010.8 1546.06L6089.46 2137.88L6262.16 2155.52L6138.76 1426.51L6264 812.068ZM4519.68 812L4372.63 812.237V2021.84C4372.63 2021.84 4472.26 2024.45 4712.62 2034.35V1911.58C4712.62 1911.58 4685.7 1909.06 4519.68 1903.7V812ZM1949.57 2070.29C1949.57 2070.29 2036.38 2064.73 2287.4 2049.86V1926.3L2097.6 1938.32V1505.24L2287.4 1505.1V1379.18L2096.88 1379.29V937.208H2288.1V812.22L1949.59 812.322L1949.57 2070.29ZM3568.96 2011.92H3717.06V1505.24L3906.83 1505.1V1379.17L3716.27 1379.3V937.208H3907.49V812.22L3568.96 812.322V2011.92Z" fill="white"/>
</svg>
