<svg width="7331" height="3131" viewBox="0 0 7331 3131" fill="none" xmlns="http://www.w3.org/2000/svg">
<rect width="7331" height="3131" fill="#001220"/>
<path d="M2313.76 1734.34C2315.32 1723.97 2324.82 1716.15 2336.23 1716.15C2336.4 1716.15 2336.58 1716.15 2336.75 1716.15C2343.83 1716.47 2350.57 1718.38 2356.1 1721.89L2355.93 1721.73C2735.96 1942.87 3198.07 2074.35 3693.36 2074.98C4063.88 2072.75 4414.7 1996.48 4729.58 1861.02L4714.2 1866.93C4720.42 1863.42 4728.02 1861.34 4736.14 1861.34C4759.99 1861.34 4779.35 1879.21 4779.35 1901.23C4779.35 1916.07 4770.54 1928.99 4757.57 1935.85L4757.4 1936.01C4455.32 2143.91 4074.77 2269 3662.43 2269C3141.04 2268.68 2668.73 2074.82 2325.17 1760.98L2325.34 1761.14C2319.47 1756.2 2315.32 1749.5 2313.76 1742V1741.84V1734.34ZM4513.04 1768.64C4593.05 1717.59 4692.25 1687.11 4799.05 1687.11C4804.06 1687.11 4809.07 1687.11 4814.08 1687.27H4813.39C4822.03 1686.47 4832.23 1686 4842.43 1686C4897.73 1686 4949.4 1700.2 4993.64 1724.93L4992.26 1724.29C4994.85 1743.27 4996.23 1765.45 4996.23 1787.79C4996.23 1937.61 4930.74 2073.23 4824.8 2171.67C4800.6 2191.94 4777.27 2181.09 4788.16 2154.28C4823.94 2066.21 4903.95 1868.04 4865.93 1819.86C4828.08 1771.67 4615.86 1796.88 4520.47 1808.37C4505.78 1809.97 4497.31 1804.38 4496.27 1796.25V1791.62C4498.52 1781.89 4504.74 1773.91 4513.21 1768.8L4513.38 1768.64H4513.04ZM5991.14 1392.58C6059.81 1392.58 6094.14 1344.18 6094.14 1247.39C6094.14 1151.02 6059.58 1102.99 5991.14 1102.99C5922.48 1102.99 5888.14 1151.12 5888.14 1247.39C5888.14 1344.23 5922.71 1392.58 5991.14 1392.58ZM5991.14 1495.17C5987.17 1495.33 5982.68 1495.49 5978.18 1495.49C5911.82 1495.49 5851.85 1470.28 5808.82 1429.75C5767.69 1385.24 5742.63 1327 5742.63 1263.34C5742.63 1257.76 5742.8 1252.33 5743.15 1246.75V1247.54C5742.8 1242.92 5742.63 1237.65 5742.63 1232.23C5742.63 1168.73 5767.69 1110.49 5809.17 1065.65L5808.82 1065.97C5856.86 1025.61 5920.98 1000.72 5991.32 1000.72C6061.65 1000.72 6125.77 1025.45 6173.98 1066.13L6173.81 1065.97C6214.94 1110.49 6240 1168.57 6240 1232.07C6240 1237.49 6239.83 1242.76 6239.48 1248.02V1247.23C6239.83 1251.85 6240 1257.44 6240 1262.86C6240 1326.52 6214.94 1384.76 6173.47 1429.75L6173.81 1429.43C6130.78 1469.96 6070.64 1495.17 6004.28 1495.17C5999.78 1495.17 5995.12 1495.01 5990.62 1494.85H5991.32L5991.14 1495.17ZM5463.7 1095.81C5402.18 1095.81 5366.58 1130.91 5357.08 1201.43C5381.62 1206.06 5409.96 1208.61 5438.82 1208.61C5440.2 1208.61 5441.58 1208.61 5442.79 1208.61C5445.56 1208.77 5448.67 1208.93 5451.95 1208.93C5474.59 1208.93 5495.85 1203.67 5514.34 1194.41L5513.65 1194.73C5527.13 1185.96 5535.77 1171.76 5535.77 1155.64C5535.77 1154.53 5535.77 1153.25 5535.6 1152.13C5535.6 1114.32 5511.58 1095.65 5463.7 1095.65V1095.81ZM5450.23 1289.19C5448.15 1289.19 5445.9 1289.19 5443.49 1289.19C5412.21 1289.19 5381.79 1285.52 5352.76 1278.66L5355.35 1279.14C5355.52 1312.8 5370.38 1343.12 5394.23 1365.29C5418.77 1381.73 5449.71 1391.62 5482.89 1391.62C5487.04 1391.62 5491.01 1391.46 5495.16 1391.14H5494.64C5494.98 1391.14 5495.5 1391.14 5496.02 1391.14C5513.99 1391.14 5531.62 1390.03 5548.9 1387.79L5546.83 1387.95C5576.9 1383.64 5602.65 1378.38 5627.88 1371.84L5623.39 1372.79L5628.05 1372.47C5638.77 1372.47 5644.3 1379.49 5644.3 1393.06V1434.38C5644.3 1435.34 5644.47 1436.3 5644.47 1437.41C5644.47 1443.63 5642.74 1449.54 5639.98 1454.8L5640.15 1454.64C5635.83 1459.43 5630.3 1462.94 5623.73 1465.01C5580.18 1480.97 5529.55 1490.06 5476.84 1490.06C5475.97 1490.06 5475.28 1490.06 5474.42 1490.06C5469.58 1490.38 5464.22 1490.54 5458.52 1490.54C5393.89 1490.54 5335.13 1467.09 5291.75 1428.96L5291.92 1429.12C5251.83 1386.99 5227.46 1331.31 5227.46 1270.36C5227.46 1264.78 5227.64 1259.19 5228.16 1253.77V1254.57C5227.81 1249.94 5227.64 1244.51 5227.64 1239.09C5227.64 1175.27 5252.52 1116.71 5293.65 1071.24L5293.31 1071.72C5335.82 1030.55 5395.61 1005.02 5461.98 1005.02C5466.47 1005.02 5470.96 1005.18 5475.28 1005.34H5474.59C5478.22 1005.18 5482.54 1005.02 5486.86 1005.02C5535.25 1005.02 5579.67 1020.34 5614.75 1046.19L5614.4 1045.87C5645.51 1070.76 5665.04 1107.3 5665.04 1148.14C5665.04 1149.9 5665.04 1151.81 5664.86 1153.57V1153.25C5665.04 1155.16 5665.04 1157.4 5665.04 1159.63C5665.04 1199.04 5643.61 1233.82 5611.12 1254.72L5610.77 1255.04C5570.16 1277.06 5521.25 1290.15 5469.24 1290.15C5462.84 1290.15 5456.45 1289.99 5450.23 1289.51H5451.09L5450.23 1289.19ZM4891.16 1390.82C4924.86 1390.66 4956.14 1381.09 4982.06 1364.98L4981.54 1365.29V1124.05C4954.76 1109.69 4922.61 1101.24 4888.4 1101.24C4887.01 1101.24 4885.63 1101.24 4884.25 1101.24C4882.69 1101.08 4880.97 1101.08 4879.06 1101.08C4848.99 1101.08 4822.55 1115.28 4807.17 1136.82L4807 1137.13C4790.58 1164.74 4780.9 1197.45 4780.9 1232.39C4780.9 1237.33 4781.08 1242.28 4781.42 1247.07V1246.43C4781.08 1250.58 4780.9 1255.36 4780.9 1260.15C4780.9 1295.09 4791.1 1327.96 4808.73 1356.2L4808.21 1355.24C4825.66 1376.94 4853.31 1390.98 4884.59 1390.98C4886.84 1390.98 4889.26 1390.82 4891.51 1390.82H4891.16ZM4844.15 1491.34C4842.77 1491.34 4841.39 1491.34 4839.83 1491.34C4800.09 1491.34 4763.1 1479.85 4732.86 1460.39L4733.55 1460.71C4701.58 1439.33 4676.87 1410.61 4662.01 1377.1L4661.49 1375.82C4645.59 1340.56 4636.43 1299.4 4636.43 1256.48C4636.43 1254.25 4636.43 1252.17 4636.43 1249.94V1250.26C4636.26 1245.95 4636.08 1241 4636.08 1235.9C4636.08 1173.19 4657.86 1115.12 4695.01 1068.05L4694.32 1068.85C4728.37 1027.36 4781.94 1000.72 4842.08 1000.72C4843.98 1000.72 4845.88 1000.72 4847.78 1000.88H4847.44C4848.82 1000.88 4850.38 1000.88 4851.93 1000.88C4901.01 1000.88 4946.29 1016.35 4982.24 1042.36L4981.72 1042.04V828.241C4981.72 827.603 4981.54 826.805 4981.54 826.007C4981.54 820.104 4983.79 814.679 4987.59 810.371C4992.09 807.18 4997.96 805.265 5004.18 805.265C5004.88 805.265 5005.74 805.265 5006.43 805.425H5100.44C5101.83 805.106 5103.38 804.946 5105.11 804.946C5116.34 804.946 5125.5 813.402 5125.5 823.773C5125.5 825.369 5125.33 826.964 5124.81 828.56V828.4V1458.63C5124.81 1459.43 5124.98 1460.23 5124.98 1461.03C5124.98 1466.61 5122.91 1471.88 5119.45 1476.02C5115.13 1479.53 5109.43 1481.77 5103.21 1481.77C5102.17 1481.77 5101.31 1481.77 5100.44 1481.61H5021.98C5021.47 1481.61 5020.77 1481.61 5020.26 1481.61C5014.21 1481.61 5008.5 1479.85 5003.84 1476.98C4999.17 1472.99 4995.89 1467.57 4994.68 1461.66L4988.8 1440.6C4951.99 1472.19 4902.39 1491.66 4847.96 1491.66C4846.75 1491.66 4845.54 1491.66 4844.33 1491.66L4844.15 1491.34ZM4423.52 1481.45C4422.83 1481.45 4422.13 1481.61 4421.44 1481.61C4415.05 1481.61 4409.35 1479.53 4404.85 1475.86C4401.05 1471.88 4398.63 1466.61 4398.63 1460.71C4398.63 1459.91 4398.63 1459.11 4398.8 1458.47V1037.57C4398.8 1036.94 4398.63 1036.14 4398.63 1035.34C4398.63 1029.44 4400.88 1023.85 4404.85 1019.7C4409.35 1016.67 4415.05 1014.76 4421.1 1014.76C4421.96 1014.76 4422.65 1014.76 4423.52 1014.92H4517.53C4518.39 1014.76 4519.43 1014.76 4520.47 1014.76C4526.69 1014.76 4532.39 1016.67 4536.89 1019.86C4540.17 1024.01 4542.24 1029.28 4542.24 1035.02C4542.24 1035.98 4542.24 1036.94 4542.07 1037.89V1458.63C4542.07 1459.27 4542.24 1460.23 4542.24 1461.03C4542.24 1466.61 4540.17 1471.88 4536.89 1476.02C4532.39 1479.53 4526.69 1481.77 4520.3 1481.77C4519.26 1481.77 4518.22 1481.77 4517.36 1481.61H4517.53L4423.52 1481.45ZM4470.52 942.48C4469.31 942.48 4467.93 942.64 4466.72 942.64C4445.29 942.64 4425.59 935.3 4410.73 923.174C4396.73 909.612 4388.26 891.264 4388.26 871.16C4388.26 851.057 4396.9 832.549 4410.9 819.146C4427.15 807.18 4448.06 800 4470.7 800C4493.34 800 4514.25 807.18 4530.66 819.306L4530.49 819.146C4544.32 832.708 4552.96 851.057 4552.96 871.16C4552.96 891.264 4544.49 909.612 4530.49 923.174C4515.63 935.3 4496.1 942.64 4474.5 942.64C4473.12 942.64 4471.91 942.64 4470.52 942.48ZM4034.33 1481.45C4033.81 1481.45 4033.3 1481.45 4032.78 1481.45C4027.59 1481.45 4022.58 1480.65 4017.92 1479.22L4018.26 1479.37C4013.94 1477.78 4010.31 1475.23 4007.55 1472.04C4004.26 1468.05 4001.5 1463.26 3999.42 1458.31L3999.25 1457.99L3831.45 1051.3L3826.43 1038.69C3825.22 1035.66 3824.53 1032.31 3824.53 1028.8C3824.53 1019.38 3831.1 1014.92 3844.23 1014.92H3942.22C3943.6 1014.76 3945.16 1014.6 3946.89 1014.6C3962.1 1014.6 3974.71 1025.13 3976.61 1038.69V1038.85L4077.71 1362.26L4180.71 1038.85C4182.44 1031.51 4186.41 1025.29 4191.94 1020.5C4197.65 1016.99 4204.56 1015.08 4212.16 1015.08C4213.2 1015.08 4214.24 1015.08 4215.27 1015.24H4310.15C4323.28 1015.24 4329.85 1019.54 4329.85 1028.8C4329.85 1032.47 4328.99 1035.82 4327.78 1039.01V1038.85L4323.11 1051.77L4155.31 1458.31C4153.06 1463.58 4150.29 1468.21 4146.84 1472.35L4147.01 1472.19C4144.42 1475.39 4140.96 1477.94 4136.99 1479.69C4132.84 1480.97 4127.83 1481.77 4122.82 1481.77C4121.78 1481.77 4120.74 1481.77 4119.88 1481.61L4034.33 1481.45ZM3397.67 1093.42C3334.6 1093.42 3298.3 1129.32 3288.45 1201.12C3313.51 1205.9 3342.37 1208.45 3371.75 1208.45C3373.31 1208.45 3374.86 1208.45 3376.24 1208.45C3379.18 1208.61 3382.47 1208.77 3385.92 1208.77C3408.91 1208.77 3430.51 1203.35 3449.52 1193.94L3448.83 1194.25C3462.65 1185.32 3471.64 1170.64 3471.64 1154.21C3471.64 1153.09 3471.64 1151.81 3471.47 1150.7C3471.47 1112.19 3446.87 1093.15 3397.67 1093.26V1093.42ZM3383.85 1290.78C3382.12 1290.78 3380.05 1290.78 3377.8 1290.78C3345.31 1290.78 3313.86 1287.11 3283.61 1280.25L3286.38 1280.73C3286.73 1315.04 3301.93 1345.99 3326.3 1368.49C3351.53 1385.24 3383.16 1395.29 3417.2 1395.29C3421.35 1395.29 3425.5 1395.13 3429.65 1394.81H3429.13C3429.47 1394.81 3429.99 1394.81 3430.51 1394.81C3449 1394.81 3467.15 1393.69 3485.12 1391.46L3483.05 1391.62C3513.81 1387.31 3540.08 1381.89 3566 1375.03L3561.33 1376.14L3566.34 1375.82C3577.52 1375.82 3583.11 1382.79 3583.11 1396.73V1438.85C3583.11 1439.81 3583.28 1440.76 3583.28 1441.88C3583.28 1448.26 3581.72 1454.32 3578.79 1459.59L3578.96 1459.43C3574.47 1464.38 3568.59 1468.05 3562.02 1469.96H3561.68C3517.09 1486.08 3465.42 1495.49 3411.5 1495.49C3410.64 1495.49 3409.6 1495.49 3408.73 1495.49H3408.91C3403.9 1495.81 3398.02 1495.97 3392.14 1495.97C3325.96 1495.97 3265.81 1472.04 3221.4 1433.1L3221.57 1433.26C3180.44 1390.5 3155.38 1333.86 3155.38 1271.64C3155.38 1265.89 3155.56 1259.99 3156.08 1254.41V1255.2C3155.73 1250.58 3155.56 1245.15 3155.56 1239.73C3155.56 1174.47 3181.13 1114.64 3223.3 1068.37L3222.96 1068.69C3266.51 1026.72 3327.86 1000.56 3395.77 1000.56C3400.44 1000.56 3405.28 1000.72 3409.94 1000.88H3409.25C3413.06 1000.72 3417.38 1000.56 3421.7 1000.56C3471.29 1000.56 3516.92 1016.19 3553.04 1042.36L3552.52 1042.04C3584.49 1067.41 3604.54 1104.75 3604.54 1146.39C3604.54 1148.3 3604.54 1150.06 3604.36 1151.97V1151.65C3604.54 1153.57 3604.54 1155.8 3604.54 1158.04C3604.54 1198.4 3582.59 1233.98 3549.06 1255.04L3548.54 1255.36C3507.07 1277.86 3457.12 1291.26 3403.9 1291.26C3396.98 1291.26 3390.24 1291.1 3383.5 1290.62H3384.37L3383.85 1290.78ZM2436.46 1059.43C2463.6 1041.88 2494.53 1026.56 2527.54 1015.08L2530.48 1014.12C2556.05 1005.66 2585.61 1000.72 2616.37 1000.72C2616.54 1000.72 2616.71 1000.72 2616.89 1000.72C2620.34 1000.4 2624.49 1000.24 2628.64 1000.24C2676.51 1000.24 2718.5 1023.69 2741.66 1058.79L2742.01 1059.27C2769.31 1041.4 2800.42 1026.25 2833.94 1015.24L2836.71 1014.44C2863.84 1005.66 2895.12 1000.72 2927.78 1000.72C2927.96 1000.72 2928.13 1000.72 2928.3 1000.72C2930.89 1000.56 2933.83 1000.4 2936.94 1000.4C2974.96 1000.4 3009.53 1014.12 3035.28 1036.46C3058.95 1060.55 3073.3 1092.62 3073.3 1127.88C3073.3 1130.75 3073.12 1133.62 3072.95 1136.5V1136.18V1458.79C3072.95 1459.43 3073.12 1460.23 3073.12 1461.19C3073.12 1466.93 3071.05 1472.04 3067.59 1476.34C3063.27 1479.85 3057.57 1481.93 3051.35 1481.93C3050.31 1481.93 3049.27 1481.93 3048.24 1481.77H2953.88C2953.02 1481.93 2952.15 1481.93 2951.29 1481.93C2945.24 1481.93 2939.54 1479.85 2935.39 1476.34C2931.59 1472.19 2929.34 1466.77 2929.34 1460.87C2929.34 1460.23 2929.34 1459.43 2929.51 1458.79V1458.95V1165.69C2929.51 1124.21 2909.64 1103.47 2869.54 1103.47C2830.32 1103.95 2793.51 1112.56 2760.84 1127.72L2762.23 1127.08V1458.79C2762.23 1459.43 2762.4 1460.23 2762.4 1461.19C2762.4 1466.93 2760.32 1472.04 2756.87 1476.34C2752.55 1479.85 2746.84 1481.93 2740.62 1481.93C2739.59 1481.93 2738.38 1481.93 2737.34 1481.77H2643.15C2642.29 1481.93 2641.43 1481.93 2640.56 1481.93C2634.51 1481.93 2628.81 1479.85 2624.66 1476.34C2620.86 1472.35 2618.44 1467.09 2618.44 1461.19C2618.44 1460.39 2618.44 1459.59 2618.61 1458.95V1165.85C2618.61 1124.37 2598.57 1103.63 2558.65 1103.63C2519.07 1103.79 2481.74 1112.88 2448.91 1128.68L2450.29 1128.04V1458.95C2450.29 1459.59 2450.46 1460.39 2450.46 1461.35C2450.46 1467.09 2448.39 1472.19 2444.93 1476.5C2440.61 1480.01 2434.91 1482.09 2428.69 1482.09C2427.65 1482.09 2426.61 1482.09 2425.58 1481.93H2331.05C2330.35 1481.93 2329.49 1482.09 2328.63 1482.09C2322.4 1482.09 2316.87 1480.01 2312.55 1476.5C2308.93 1472.35 2306.68 1467.09 2306.68 1461.35C2306.68 1460.55 2306.68 1459.91 2306.85 1459.11V1459.27V1038.05C2306.68 1037.25 2306.68 1036.3 2306.68 1035.5C2306.68 1029.6 2308.93 1024.33 2312.73 1020.02C2317.22 1016.83 2322.75 1014.92 2328.97 1014.92C2329.84 1014.92 2330.7 1014.92 2331.39 1015.08H2331.22H2402.25C2402.94 1015.08 2403.63 1014.92 2404.49 1014.92C2417.28 1014.92 2428 1023.69 2429.9 1035.02V1035.18L2436.46 1059.43ZM2039.68 1037.57C2039.68 1036.94 2039.5 1036.14 2039.5 1035.34C2039.5 1029.44 2041.75 1024.01 2045.55 1019.7C2050.05 1016.51 2055.75 1014.6 2061.97 1014.6C2062.83 1014.6 2063.52 1014.6 2064.39 1014.76H2064.22H2158.75C2159.61 1014.6 2160.65 1014.6 2161.68 1014.6C2167.91 1014.6 2173.44 1016.51 2178.1 1019.7C2181.56 1023.85 2183.63 1029.12 2183.63 1034.86C2183.63 1035.82 2183.63 1036.78 2183.46 1037.73V1037.57V1458.79C2183.46 1459.43 2183.63 1460.23 2183.63 1461.19C2183.63 1466.93 2181.56 1472.04 2178.1 1476.34C2173.61 1479.85 2167.73 1482.09 2161.34 1482.09C2160.48 1482.09 2159.44 1482.09 2158.57 1481.93H2064.39C2063.87 1481.93 2063.18 1481.93 2062.49 1481.93C2056.09 1481.93 2050.22 1479.85 2045.72 1476.18C2042.1 1472.04 2039.85 1466.77 2039.85 1461.03C2039.85 1460.23 2039.85 1459.59 2040.02 1458.79V1458.95L2039.68 1037.57ZM2111.57 942.48C2110.36 942.48 2108.98 942.64 2107.42 942.64C2085.99 942.64 2066.46 935.3 2051.43 923.334L2051.6 923.494C2037.6 911.208 2028.79 893.817 2028.79 874.67C2028.79 873.554 2028.79 872.277 2028.96 871.16C2028.96 870.203 2028.79 869.086 2028.79 867.969C2028.79 848.823 2037.6 831.751 2051.6 819.625C2068.02 807.499 2088.93 800.319 2111.74 800.319C2134.55 800.319 2155.29 807.499 2171.88 819.625L2171.71 819.465C2185.71 831.751 2194.52 848.983 2194.52 868.129C2194.52 869.246 2194.52 870.522 2194.35 871.639C2194.35 872.596 2194.35 873.554 2194.35 874.67C2194.35 893.976 2185.53 911.368 2171.54 923.653C2156.67 935.62 2136.97 942.799 2115.54 942.799C2114.16 942.799 2112.6 942.8 2111.22 942.64H2111.4L2111.57 942.48ZM1782.01 1084C1802.92 1061.35 1827.46 1042.36 1854.93 1027.68L1856.32 1027.04C1877.75 1016.35 1903.32 1010.13 1930.28 1010.13C1930.46 1010.13 1930.63 1010.13 1930.8 1010.13H1944.28C1944.97 1010.13 1945.84 1009.97 1946.7 1009.97C1953.27 1009.97 1959.32 1011.89 1964.15 1015.08H1963.98C1967.78 1019.23 1970.03 1024.65 1970.03 1030.39C1970.03 1031.35 1970.03 1032.15 1969.86 1033.11V1109.69C1969.86 1110.33 1970.03 1111.13 1970.03 1111.93C1970.03 1117.67 1967.96 1122.93 1964.5 1127.08C1960.01 1130.59 1954.3 1132.67 1948.08 1132.67C1947.05 1132.67 1946.18 1132.67 1945.14 1132.51H1945.32C1939.44 1132.51 1933.57 1132.24 1927.69 1131.71C1920.95 1131.23 1913.17 1130.91 1905.4 1130.91C1883.97 1130.91 1863.06 1132.99 1843.01 1136.97L1844.91 1136.66C1824 1140.33 1805.51 1145.43 1787.88 1152.45L1789.61 1151.81V1458.79C1789.61 1459.43 1789.78 1460.23 1789.78 1461.19C1789.78 1466.93 1787.71 1472.04 1784.25 1476.34C1779.93 1479.85 1774.06 1482.09 1767.66 1482.09C1766.8 1482.09 1765.76 1482.09 1764.9 1481.93H1670.71C1669.67 1482.09 1668.46 1482.25 1667.25 1482.25C1655.33 1482.25 1645.65 1473.31 1645.65 1462.3C1645.65 1461.19 1645.83 1460.07 1646 1458.95V1037.73C1646 1036.94 1645.83 1036.14 1645.83 1035.34C1645.83 1029.44 1648.07 1024.01 1652.05 1019.7C1656.54 1016.51 1662.24 1014.6 1668.29 1014.6C1669.16 1014.6 1670.02 1014.6 1670.88 1014.76H1741.57C1742.26 1014.76 1742.95 1014.6 1743.81 1014.6C1756.6 1014.6 1767.14 1023.21 1769.22 1034.54V1034.7L1782.01 1084ZM1296.56 1101.39C1260.96 1101.39 1227.61 1110.65 1199.27 1126.6L1200.13 1126.13V1366.57C1227.09 1382.05 1259.58 1391.3 1294.66 1391.3C1295.35 1391.3 1296.04 1391.3 1296.73 1391.3C1298.81 1391.46 1301.05 1391.62 1303.47 1391.62C1333.89 1391.62 1360.85 1377.9 1377.61 1357L1377.79 1356.84C1394.55 1329.4 1404.57 1296.69 1404.57 1261.74C1404.57 1256.64 1404.4 1251.53 1403.88 1246.43V1247.07C1404.23 1242.6 1404.4 1237.49 1404.4 1232.23C1404.4 1197.13 1394.72 1164.1 1377.79 1135.38L1378.3 1136.5C1361.37 1115.28 1334.24 1101.55 1303.82 1101.55C1301.23 1101.55 1298.64 1101.71 1296.22 1101.87H1296.56V1101.39ZM1056.17 1037.57C1056.17 1036.94 1056 1035.98 1056 1035.18C1056 1029.28 1058.42 1023.85 1062.22 1019.54C1066.71 1016.35 1072.24 1014.44 1078.47 1014.44C1079.33 1014.44 1080.19 1014.44 1080.89 1014.6H1151.74C1152.43 1014.6 1153.3 1014.44 1153.99 1014.44C1166.78 1014.44 1177.32 1023.21 1179.05 1034.54V1034.7L1185.96 1058.48C1205.83 1040.92 1229.51 1026.72 1255.78 1017.15L1257.33 1016.67C1282.56 1006.78 1311.94 1001.04 1342.88 1000.88C1344.95 1000.88 1347.37 1000.72 1349.79 1000.72C1408.2 1000.72 1460.39 1026.09 1493.75 1065.5L1494.09 1065.81C1529 1110.49 1550.08 1166.17 1550.08 1226.48C1550.08 1231.75 1549.91 1236.85 1549.57 1241.96V1241.32C1549.57 1243.56 1549.74 1246.11 1549.74 1248.66C1549.74 1293.97 1539.54 1337.05 1521.4 1375.98L1522.26 1373.91C1505.84 1409.49 1480.09 1438.85 1447.95 1460.55L1447.26 1461.03C1417.88 1480.17 1381.24 1491.82 1341.84 1491.82C1340.8 1491.82 1339.77 1491.82 1338.73 1491.82H1338.9C1338.56 1491.82 1338.04 1491.82 1337.69 1491.82C1310.73 1491.82 1284.64 1487.51 1260.62 1479.37L1262.17 1479.85C1238.15 1472.35 1217.41 1461.19 1199.78 1446.99L1199.96 1447.14V1647.06C1200.13 1647.86 1200.13 1648.82 1200.13 1649.78C1200.13 1655.52 1198.06 1660.79 1194.6 1665.09C1189.93 1668.28 1184.23 1670.2 1178.01 1670.2C1176.97 1670.2 1176.11 1670.2 1175.07 1670.04H1081.06C1080.37 1670.04 1079.68 1670.04 1078.81 1670.04C1072.59 1670.04 1066.89 1668.13 1062.39 1664.93C1058.59 1660.79 1056.17 1655.52 1056.17 1649.62C1056.17 1648.66 1056.17 1647.7 1056.35 1646.9L1056.17 1037.57Z" fill="#FAFEFF"/>
<path d="M2316.69 1734.22C2318.24 1723.85 2327.75 1716.03 2339.15 1716.03C2339.33 1716.03 2339.5 1716.03 2339.67 1716.03C2346.76 1716.35 2353.5 1718.26 2359.03 1721.78L2358.85 1721.62C2738.86 1942.8 3200.94 2074.3 3696.21 2074.94C4066.71 2072.71 4417.5 1996.43 4732.36 1860.94L4716.98 1866.84C4723.2 1863.33 4730.8 1861.25 4738.93 1861.25C4762.77 1861.25 4782.13 1879.13 4782.13 1901.15C4782.13 1915.99 4773.31 1928.92 4760.35 1935.78L4760.18 1935.94C4458.11 2143.88 4077.59 2269 3665.28 2269C3143.92 2268.68 2671.64 2074.78 2328.09 1760.87L2328.27 1761.03C2322.39 1756.09 2318.24 1749.38 2316.69 1741.88V1741.72V1734.22ZM4515.83 1768.53C4595.84 1717.47 4695.03 1686.99 4801.83 1686.99C4806.84 1686.99 4811.85 1686.99 4816.86 1687.15H4816.17C4824.81 1686.35 4835.01 1685.87 4845.2 1685.87C4900.5 1685.87 4952.17 1700.07 4996.41 1724.81L4995.03 1724.17C4997.62 1743.16 4999 1765.34 4999 1787.68C4999 1937.54 4933.51 2073.19 4827.58 2171.65C4803.38 2191.92 4780.05 2181.07 4790.94 2154.26C4826.71 2066.16 4906.72 1867.96 4868.7 1819.76C4830.86 1771.57 4618.65 1796.78 4523.26 1808.27C4508.57 1809.87 4500.11 1804.28 4499.07 1796.14V1791.52C4501.32 1781.78 4507.54 1773.8 4516 1768.69L4516.18 1768.53H4515.83ZM3400.54 1093.16C3337.46 1093.16 3301.17 1129.07 3291.32 1200.88C3316.38 1205.67 3345.24 1208.22 3374.61 1208.22C3376.17 1208.22 3377.72 1208.22 3379.11 1208.22C3382.04 1208.38 3385.33 1208.54 3388.78 1208.54C3411.77 1208.54 3433.37 1203.12 3452.38 1193.7L3451.69 1194.02C3465.51 1185.08 3474.5 1170.4 3474.5 1153.96C3474.5 1152.85 3474.5 1151.57 3474.32 1150.45C3474.32 1111.94 3449.73 1092.9 3400.54 1093V1093.16ZM3386.71 1290.57C3384.98 1290.57 3382.91 1290.57 3380.66 1290.57C3348.17 1290.57 3316.72 1286.9 3286.48 1280.04L3289.25 1280.52C3289.59 1314.83 3304.8 1345.79 3329.17 1368.29C3354.4 1385.05 3386.02 1395.1 3420.06 1395.1C3424.21 1395.1 3428.36 1394.94 3432.5 1394.62H3431.99C3432.33 1394.62 3432.85 1394.62 3433.37 1394.62C3451.86 1394.62 3470 1393.5 3487.98 1391.27L3485.9 1391.43C3516.66 1387.12 3542.93 1381.7 3568.85 1374.83L3564.18 1375.95L3569.19 1375.63C3580.37 1375.63 3585.96 1382.6 3585.96 1396.54V1438.67C3585.96 1439.63 3586.13 1440.58 3586.13 1441.7C3586.13 1448.08 3584.57 1454.15 3581.64 1459.41L3581.81 1459.25C3577.32 1464.2 3571.44 1467.87 3564.87 1469.79H3564.53C3519.94 1485.91 3468.28 1495.32 3414.36 1495.32C3413.5 1495.32 3412.46 1495.32 3411.59 1495.32H3411.77C3406.76 1495.64 3400.88 1495.8 3395.01 1495.8C3328.82 1495.8 3268.68 1471.86 3224.27 1432.92L3224.45 1433.08C3183.32 1390.31 3158.26 1333.66 3158.26 1271.42C3158.26 1265.68 3158.43 1259.77 3158.95 1254.19V1254.98C3158.61 1250.35 3158.43 1244.93 3158.43 1239.5C3158.43 1174.23 3184.01 1114.39 3226.17 1068.11L3225.83 1068.43C3269.37 1026.45 3330.72 1000.28 3398.63 1000.28C3403.3 1000.28 3408.14 1000.44 3412.8 1000.6H3412.11C3415.92 1000.44 3420.24 1000.28 3424.56 1000.28C3474.15 1000.28 3519.77 1015.92 3555.89 1042.09L3555.37 1041.77C3587.34 1067.15 3607.39 1104.49 3607.39 1146.14C3607.39 1148.06 3607.39 1149.82 3607.21 1151.73V1151.41C3607.39 1153.33 3607.39 1155.56 3607.39 1157.79C3607.39 1198.17 3585.44 1233.76 3551.91 1254.82L3551.4 1255.14C3509.92 1277.64 3459.98 1291.05 3406.76 1291.05C3399.84 1291.05 3393.1 1290.89 3386.37 1290.41H3387.23L3386.71 1290.57ZM2439.38 1059.17C2466.51 1041.61 2497.45 1026.29 2530.45 1014.8L2533.39 1013.85C2558.96 1005.39 2588.51 1000.44 2619.27 1000.44C2619.45 1000.44 2619.62 1000.44 2619.79 1000.44C2623.25 1000.12 2627.4 999.963 2631.54 999.963C2679.41 999.963 2721.4 1023.42 2744.56 1058.53L2744.91 1059.01C2772.21 1041.14 2803.31 1025.98 2836.84 1014.96L2839.6 1014.17C2866.73 1005.39 2898.01 1000.44 2930.67 1000.44C2930.85 1000.44 2931.02 1000.44 2931.19 1000.44C2933.78 1000.28 2936.72 1000.12 2939.83 1000.12C2977.85 1000.12 3012.41 1013.85 3038.16 1036.19C3061.83 1060.29 3076.18 1092.36 3076.18 1127.63C3076.18 1130.5 3076 1133.38 3075.83 1136.25V1135.93V1458.62C3075.83 1459.25 3076 1460.05 3076 1461.01C3076 1466.76 3073.93 1471.86 3070.47 1476.17C3066.15 1479.68 3060.45 1481.76 3054.23 1481.76C3053.19 1481.76 3052.16 1481.76 3051.12 1481.6H2956.77C2955.9 1481.76 2955.04 1481.76 2954.17 1481.76C2948.13 1481.76 2942.42 1479.68 2938.28 1476.17C2934.47 1472.02 2932.23 1466.6 2932.23 1460.69C2932.23 1460.05 2932.23 1459.25 2932.4 1458.62V1458.78V1165.45C2932.4 1123.96 2912.53 1103.22 2872.44 1103.22C2833.21 1103.69 2796.4 1112.31 2763.74 1127.47L2765.12 1126.83V1458.62C2765.12 1459.25 2765.3 1460.05 2765.3 1461.01C2765.3 1466.76 2763.22 1471.86 2759.77 1476.17C2755.45 1479.68 2749.74 1481.76 2743.52 1481.76C2742.49 1481.76 2741.28 1481.76 2740.24 1481.6H2646.06C2645.2 1481.76 2644.33 1481.76 2643.47 1481.76C2637.42 1481.76 2631.72 1479.68 2627.57 1476.17C2623.77 1472.18 2621.35 1466.91 2621.35 1461.01C2621.35 1460.21 2621.35 1459.41 2621.52 1458.78V1165.61C2621.52 1124.12 2601.48 1103.38 2561.56 1103.38C2521.98 1103.53 2484.66 1112.63 2451.82 1128.43L2453.21 1127.79V1458.78C2453.21 1459.41 2453.38 1460.21 2453.38 1461.17C2453.38 1466.91 2451.31 1472.02 2447.85 1476.33C2443.53 1479.84 2437.83 1481.92 2431.61 1481.92C2430.57 1481.92 2429.53 1481.92 2428.5 1481.76H2333.97C2333.28 1481.76 2332.41 1481.92 2331.55 1481.92C2325.33 1481.92 2319.8 1479.84 2315.48 1476.33C2311.85 1472.18 2309.6 1466.91 2309.6 1461.17C2309.6 1460.37 2309.6 1459.73 2309.78 1458.94V1459.1V1037.78C2309.6 1036.99 2309.6 1036.03 2309.6 1035.23C2309.6 1029.33 2311.85 1024.06 2315.65 1019.75C2320.15 1016.56 2325.68 1014.64 2331.9 1014.64C2332.76 1014.64 2333.62 1014.64 2334.32 1014.8H2334.14H2405.17C2405.86 1014.8 2406.55 1014.64 2407.41 1014.64C2420.2 1014.64 2430.92 1023.42 2432.82 1034.75V1034.91L2439.38 1059.17ZM2042.62 1037.31C2042.62 1036.67 2042.44 1035.87 2042.44 1035.07C2042.44 1029.17 2044.69 1023.74 2048.49 1019.43C2052.99 1016.24 2058.69 1014.33 2064.91 1014.33C2065.77 1014.33 2066.46 1014.33 2067.33 1014.49H2067.16H2161.68C2162.55 1014.33 2163.58 1014.33 2164.62 1014.33C2170.84 1014.33 2176.37 1016.24 2181.04 1019.43C2184.49 1023.58 2186.57 1028.85 2186.57 1034.59C2186.57 1035.55 2186.57 1036.51 2186.39 1037.47V1037.31V1458.62C2186.39 1459.25 2186.57 1460.05 2186.57 1461.01C2186.57 1466.76 2184.49 1471.86 2181.04 1476.17C2176.54 1479.68 2170.67 1481.92 2164.27 1481.92C2163.41 1481.92 2162.37 1481.92 2161.51 1481.76H2067.33C2066.81 1481.76 2066.12 1481.76 2065.43 1481.76C2059.03 1481.76 2053.16 1479.68 2048.67 1476.01C2045.04 1471.86 2042.79 1466.6 2042.79 1460.85C2042.79 1460.05 2042.79 1459.41 2042.96 1458.62V1458.78L2042.62 1037.31ZM2114.51 942.192C2113.3 942.192 2111.91 942.352 2110.36 942.352C2088.93 942.352 2069.4 935.011 2054.37 923.042L2054.54 923.201C2040.54 910.913 2031.73 893.518 2031.73 874.368C2031.73 873.25 2031.73 871.974 2031.9 870.857C2031.9 869.899 2031.73 868.782 2031.73 867.665C2031.73 848.514 2040.54 831.439 2054.54 819.31C2070.96 807.181 2091.87 800 2114.68 800C2137.49 800 2158.23 807.181 2174.81 819.31L2174.64 819.15C2188.64 831.439 2197.45 848.674 2197.45 867.825C2197.45 868.942 2197.45 870.218 2197.28 871.335C2197.28 872.293 2197.28 873.25 2197.28 874.368C2197.28 893.678 2188.47 911.073 2174.47 923.361C2159.61 935.33 2139.91 942.511 2118.48 942.511C2117.1 942.511 2115.54 942.511 2114.16 942.352H2114.33L2114.51 942.192ZM1784.96 1083.75C1805.87 1061.08 1830.41 1042.09 1857.89 1027.41L1859.27 1026.77C1880.7 1016.08 1906.27 1009.86 1933.23 1009.86C1933.4 1009.86 1933.58 1009.86 1933.75 1009.86H1947.23C1947.92 1009.86 1948.78 1009.7 1949.65 1009.7C1956.21 1009.7 1962.26 1011.61 1967.1 1014.8H1966.93C1970.73 1018.95 1972.98 1024.38 1972.98 1030.12C1972.98 1031.08 1972.98 1031.88 1972.8 1032.84V1109.44C1972.8 1110.08 1972.98 1110.88 1972.98 1111.67C1972.98 1117.42 1970.9 1122.69 1967.45 1126.83C1962.95 1130.35 1957.25 1132.42 1951.03 1132.42C1949.99 1132.42 1949.13 1132.42 1948.09 1132.26H1948.26C1942.39 1132.26 1936.51 1131.99 1930.64 1131.46C1923.9 1130.98 1916.12 1130.66 1908.35 1130.66C1886.92 1130.66 1866.01 1132.74 1845.96 1136.73L1847.86 1136.41C1826.95 1140.08 1808.46 1145.19 1790.84 1152.21L1792.57 1151.57V1458.62C1792.57 1459.25 1792.74 1460.05 1792.74 1461.01C1792.74 1466.76 1790.66 1471.86 1787.21 1476.17C1782.89 1479.68 1777.01 1481.92 1770.62 1481.92C1769.76 1481.92 1768.72 1481.92 1767.85 1481.76H1673.67C1672.64 1481.92 1671.43 1482.08 1670.22 1482.08C1658.29 1482.08 1648.62 1473.14 1648.62 1462.13C1648.62 1461.01 1648.79 1459.89 1648.96 1458.78V1037.47C1648.96 1036.67 1648.79 1035.87 1648.79 1035.07C1648.79 1029.17 1651.04 1023.74 1655.01 1019.43C1659.5 1016.24 1665.21 1014.33 1671.26 1014.33C1672.12 1014.33 1672.98 1014.33 1673.85 1014.49H1744.53C1745.22 1014.49 1745.91 1014.33 1746.77 1014.33C1759.56 1014.33 1770.1 1022.94 1772.17 1034.27V1034.43L1784.96 1083.75ZM1299.55 1101.14C1263.95 1101.14 1230.6 1110.4 1202.26 1126.36L1203.12 1125.88V1366.37C1230.08 1381.85 1262.57 1391.11 1297.65 1391.11C1298.34 1391.11 1299.03 1391.11 1299.72 1391.11C1301.79 1391.27 1304.04 1391.43 1306.46 1391.43C1336.87 1391.43 1363.83 1377.71 1380.59 1356.8L1380.77 1356.64C1397.53 1329.19 1407.55 1296.48 1407.55 1261.53C1407.55 1256.42 1407.38 1251.31 1406.86 1246.21V1246.84C1407.21 1242.38 1407.38 1237.27 1407.38 1232C1407.38 1196.89 1397.7 1163.86 1380.77 1135.13L1381.29 1136.25C1364.35 1115.02 1337.22 1101.3 1306.81 1101.3C1304.21 1101.3 1301.62 1101.46 1299.2 1101.62H1299.55V1101.14ZM1059.17 1037.31C1059.17 1036.67 1059 1035.71 1059 1034.91C1059 1029.01 1061.42 1023.58 1065.22 1019.27C1069.71 1016.08 1075.24 1014.17 1081.46 1014.17C1082.33 1014.17 1083.19 1014.17 1083.88 1014.33H1154.74C1155.43 1014.33 1156.29 1014.17 1156.98 1014.17C1169.77 1014.17 1180.31 1022.94 1182.04 1034.27V1034.43L1188.95 1058.21C1208.82 1040.66 1232.5 1026.45 1258.76 1016.88L1260.32 1016.4C1285.55 1006.51 1314.93 1000.76 1345.86 1000.6C1347.93 1000.6 1350.35 1000.44 1352.77 1000.44C1411.18 1000.44 1463.37 1025.82 1496.72 1065.23L1497.07 1065.55C1531.97 1110.24 1553.06 1165.93 1553.06 1226.26C1553.06 1231.52 1552.88 1236.63 1552.54 1241.74V1241.1C1552.54 1243.33 1552.71 1245.89 1552.71 1248.44C1552.71 1293.76 1542.51 1336.85 1524.37 1375.79L1525.23 1373.72C1508.82 1409.3 1483.07 1438.67 1450.93 1460.37L1450.24 1460.85C1420.86 1480 1384.22 1491.65 1344.82 1491.65C1343.79 1491.65 1342.75 1491.65 1341.71 1491.65H1341.89C1341.54 1491.65 1341.02 1491.65 1340.68 1491.65C1313.72 1491.65 1287.62 1487.34 1263.6 1479.2L1265.16 1479.68C1241.14 1472.18 1220.4 1461.01 1202.78 1446.81L1202.95 1446.97V1646.93C1203.12 1647.73 1203.12 1648.68 1203.12 1649.64C1203.12 1655.39 1201.05 1660.65 1197.59 1664.96C1192.93 1668.15 1187.22 1670.07 1181 1670.07C1179.96 1670.07 1179.1 1670.07 1178.06 1669.91H1084.06C1083.37 1669.91 1082.67 1669.91 1081.81 1669.91C1075.59 1669.91 1069.89 1667.99 1065.39 1664.8C1061.59 1660.65 1059.17 1655.39 1059.17 1649.48C1059.17 1648.52 1059.17 1647.57 1059.35 1646.77L1059.17 1037.31Z" fill="#0DBEF9"/>
</svg>
