<svg width="7331" height="3131" viewBox="0 0 7331 3131" fill="none" xmlns="http://www.w3.org/2000/svg">
<rect width="7331" height="3131" fill="#282828"/>
<path d="M2534.57 1133.56C2523.64 1095.53 2502.22 1060.86 2472.47 1033.02C2442.71 1005.18 2405.66 985.139 2365.03 974.911C2215.46 937.409 1615.75 937.409 1615.75 937.409C1615.75 937.409 1016.04 937.409 866.479 974.911C825.843 985.14 788.792 1005.18 759.037 1033.02C729.281 1060.87 707.866 1095.54 696.935 1133.56C656.857 1273.52 656.857 1565.5 656.857 1565.5C656.857 1565.5 656.857 1857.49 696.935 1997.43C707.865 2035.45 729.28 2070.13 759.035 2097.97C788.791 2125.81 825.842 2145.85 866.479 2156.08C1016.04 2193.59 1615.75 2193.59 1615.75 2193.59C1615.75 2193.59 2215.46 2193.59 2365.03 2156.08C2405.66 2145.85 2442.71 2125.81 2472.47 2097.97C2502.23 2070.13 2523.64 2035.46 2534.57 1997.43C2574.65 1857.48 2574.65 1565.49 2574.65 1565.49C2574.65 1565.49 2574.65 1273.52 2534.57 1133.56Z" fill="#FF0000"/>
<path d="M1425.15 1834.02L1923.64 1565.06L1425.15 1296.1V1834.02ZM3655.44 1956.23C3665.95 1930.62 3671.22 1888.73 3671.22 1830.59V1585.68C3671.22 1529.26 3665.95 1488.02 3655.44 1461.94C3644.92 1435.87 3626.39 1422.83 3599.88 1422.83C3574.26 1422.83 3556.17 1435.87 3545.66 1461.94C3535.14 1488.02 3529.88 1529.26 3529.88 1585.68V1830.59C3529.88 1888.71 3534.91 1930.6 3544.99 1956.23C3555.03 1981.89 3573.32 1994.7 3599.87 1994.7C3626.39 1994.7 3644.92 1981.89 3655.44 1956.23ZM3442.77 2079.35C3404.78 2055.44 3377.78 2018.24 3361.8 1967.78C3345.79 1917.37 3337.79 1850.25 3337.79 1766.47V1652.34C3337.79 1567.73 3346.92 1499.76 3365.23 1448.47C3383.52 1397.19 3412.09 1359.79 3450.99 1336.28C3489.87 1312.78 3540.86 1301.01 3603.99 1301.01C3666.19 1301.01 3716.04 1312.99 3753.56 1336.91C3791.05 1360.84 3818.5 1398.26 3835.89 1449.11C3853.25 1499.98 3861.95 1567.73 3861.95 1652.35V1766.48C3861.95 1850.25 3853.49 1917.59 3836.57 1968.43C3819.63 2019.3 3792.19 2056.49 3754.23 2079.98C3716.27 2103.49 3664.82 2115.25 3599.88 2115.25C3533.07 2115.25 3480.71 2103.27 3442.77 2079.35ZM6381.17 1437.51C6371.58 1448.64 6365.16 1466.8 6361.97 1492.01C6358.75 1517.23 6357.18 1555.48 6357.18 1606.77V1663.19H6495.74V1606.76C6495.74 1556.34 6493.91 1518.08 6490.26 1492C6486.6 1465.93 6479.98 1447.56 6470.38 1436.87C6460.76 1426.18 6445.9 1420.83 6425.77 1420.83C6405.63 1420.83 6390.78 1426.4 6381.17 1437.5V1437.51ZM6357.18 1768.34V1808.1C6357.18 1858.54 6358.75 1896.37 6361.97 1921.57C6365.16 1946.8 6371.78 1965.19 6381.87 1976.72C6391.93 1988.25 6407.46 1994.03 6428.52 1994.03C6456.85 1994.03 6476.32 1983.77 6486.84 1963.25C6497.34 1942.74 6503.06 1908.54 6503.98 1860.65L6667.27 1869.64C6668.18 1876.51 6668.65 1885.9 6668.65 1897.85C6668.65 1970.52 6647.38 2024.82 6604.83 2060.71C6562.32 2096.6 6502.14 2114.56 6424.4 2114.56C6331.1 2114.56 6265.69 2087.22 6228.18 2032.49C6190.65 1977.81 6171.91 1893.17 6171.91 1778.61V1641.4C6171.91 1523.42 6191.35 1437.31 6230.24 1383C6269.11 1328.73 6335.67 1301.59 6429.89 1301.59C6494.83 1301.59 6544.69 1312.7 6579.46 1334.93C6614.2 1357.18 6638.69 1391.79 6652.87 1438.8C6667.05 1485.81 6674.14 1550.79 6674.14 1633.7V1768.34H6357.18ZM2981.67 1753.62L2766.23 1026.56H2954.21L3029.67 1356.11C3048.89 1437.35 3063.07 1506.59 3072.21 1563.84H3077.7C3084.1 1522.82 3098.29 1454.01 3120.24 1357.39L3198.46 1026.56H3386.44L3168.28 1753.62V2102.43H2981.66V1753.62M4473.36 1316.4V2102.43H4325.16L4308.69 2006.26H4304.58C4264.32 2078.92 4203.94 2115.24 4123.44 2115.24C4067.65 2115.24 4026.49 2098.16 3999.95 2063.95C3973.42 2029.78 3960.16 1976.33 3960.16 1903.66V1316.4H4149.52V1893.42C4149.52 1928.49 4153.64 1953.49 4161.87 1968.43C4170.11 1983.41 4183.82 1990.87 4203.04 1990.87C4219.5 1990.87 4235.28 1986.19 4250.37 1976.75C4265.46 1967.36 4276.67 1955.41 4283.99 1940.88V1316.39L4473.36 1316.4ZM5444.66 1316.4V2102.43H5296.46L5279.98 2006.26H5275.89C5235.59 2078.92 5175.23 2115.24 5094.75 2115.24C5038.94 2115.24 4997.78 2098.16 4971.24 2063.95C4944.71 2029.78 4931.46 1976.33 4931.46 1903.66V1316.4H5120.82V1893.42C5120.82 1928.49 5124.93 1953.49 5133.15 1968.43C5141.39 1983.41 5155.12 1990.87 5174.33 1990.87C5190.8 1990.87 5206.58 1986.19 5221.66 1976.75C5236.77 1967.36 5247.96 1955.41 5255.29 1940.88V1316.39H5444.65" fill="white"/>
<path d="M4986.49 1168.47H4798.4V2103.7H4613.07V1168.46H4424.99V1025.87H4986.49V1168.47ZM5896.85 1763.31C5896.85 1820.69 5894.3 1865.66 5889.27 1898.19C5884.25 1930.76 5875.77 1953.87 5863.87 1967.56C5851.98 1981.27 5835.94 1988.12 5815.84 1988.12C5800.71 1988.24 5785.81 1984.7 5772.58 1977.84C5759.31 1970.99 5748.57 1960.72 5740.32 1947.01V1499.94C5746.72 1478.53 5757.71 1460.98 5773.27 1447.27C5788.83 1433.58 5805.74 1426.72 5824.05 1426.72C5843.29 1426.72 5858.14 1433.78 5868.69 1447.9C5879.19 1462.04 5886.52 1485.81 5890.65 1519.21C5894.77 1552.6 5896.85 1600.14 5896.85 1661.8V1763.31ZM6070.5 1442.09C6059.04 1392.43 6040.5 1356.46 6014.89 1334.18C5989.26 1311.92 5954.02 1300.79 5909.18 1300.79C5874.4 1300.79 5841.91 1309.99 5811.71 1328.4C5781.93 1346.39 5757.77 1371.43 5741.69 1400.99H5740.31L5740.32 986.035H5557.74V2103.68H5714.23L5733.46 2029.19H5737.57C5752.21 2055.73 5774.17 2076.71 5803.47 2092.13C5832.74 2107.54 5865.25 2115.25 5900.95 2115.25C5965 2115.25 6012.14 2087.62 6042.35 2032.39C6072.55 1977.14 6087.66 1890.88 6087.66 1773.53V1648.92C6087.66 1560.72 6081.93 1491.77 6070.5 1442.09Z" fill="white"/>
</svg>
